<?xml version="1.0" encoding="UTF-8"?>
<svg version="1.1" xmlns="http://www.w3.org/2000/svg" width="585" height="556">
<path d="M0 0 C1.18722656 0.55300781 2.37445313 1.10601562 3.59765625 1.67578125 C18.90142708 9.03775596 32.95482877 18.24161166 46.31640625 28.68652344 C47.75265695 29.80703225 49.20305497 30.90936802 50.65625 32.0078125 C62.45131793 41.09001481 73.3455118 51.68892987 83 63 C83.82242187 63.91136719 84.64484375 64.82273437 85.4921875 65.76171875 C116.79263257 100.86260361 134.95790383 146.18750274 143 192 C143.21527344 193.19882813 143.43054688 194.39765625 143.65234375 195.6328125 C153.12446291 256.33734262 137.65391496 323.8807824 102 374 C101.22168722 375.12693552 100.44438882 376.25457213 99.66796875 377.3828125 C87.5957475 394.7793162 73.24639129 411.38945391 57 425 C56.48985352 425.433125 55.97970703 425.86625 55.45410156 426.3125 C28.60691782 448.9869543 -2.27253801 466.05808963 -36 476 C-36.7410498 476.21994629 -37.48209961 476.43989258 -38.24560547 476.66650391 C-88.90118869 491.44150068 -143.11733632 490.14554691 -193 473 C-194.23105469 472.58363281 -195.46210938 472.16726563 -196.73046875 471.73828125 C-220.64482472 463.36457186 -242.67807377 451.00207583 -263 436 C-263.6084375 435.55285645 -264.216875 435.10571289 -264.84375 434.64501953 C-279.20524393 423.99811959 -292.38228232 411.5818642 -304 398 C-305.04414063 396.80503906 -305.04414063 396.80503906 -306.109375 395.5859375 C-336.72375533 359.49672274 -354.66034987 316.18132111 -363 270 C-363.13035645 269.29166016 -363.26071289 268.58332031 -363.39501953 267.85351562 C-374.78423183 203.96529638 -355.39186018 135.40032213 -318.7890625 82.82421875 C-312.94814639 74.8641255 -306.54230914 67.38614529 -300 60 C-299.50064941 59.43603516 -299.00129883 58.87207031 -298.48681641 58.29101562 C-254.09619823 8.47632387 -190.90128872 -20.08209632 -124.69580078 -24.55249023 C-81.49847262 -26.94445728 -39.04443808 -18.5416077 0 0 Z M-121.82421875 29.32421875 C-142.91148059 55.25738637 -153.63144916 97.45879763 -157 130 C-155.14418034 131.85581966 -152.50601694 131.12004366 -150.03713989 131.12442017 C-148.75213089 131.11902725 -148.75213089 131.11902725 -147.44116211 131.11352539 C-146.09495033 131.11374443 -146.09495033 131.11374443 -144.72154236 131.1139679 C-141.74011866 131.11326842 -138.7587566 131.10547441 -135.77734375 131.09765625 C-133.71611058 131.09579219 -131.65487696 131.09436823 -129.59364319 131.09336853 C-124.1569599 131.08954237 -118.72030314 131.07971126 -113.28363037 131.06866455 C-107.74052286 131.05845253 -102.19741108 131.05387136 -96.65429688 131.04882812 C-85.76951957 131.03808908 -74.88476198 131.02101149 -64 131 C-62.57705238 128.15410477 -63.33907336 126.44396775 -63.96875 123.33984375 C-64.2064209 122.16615234 -64.4440918 120.99246094 -64.68896484 119.78320312 C-64.95660645 118.51412109 -65.22424805 117.24503906 -65.5 115.9375 C-65.63593567 115.28918213 -65.77187134 114.64086426 -65.91192627 113.97290039 C-71.88599385 85.62416855 -79.12116128 51.3173096 -99 29 C-99.57621094 28.34386719 -100.15242188 27.68773437 -100.74609375 27.01171875 C-103.24133652 24.33402812 -105.23975606 22.32581883 -108.625 20.875 C-114.17377167 21.16704061 -118.12918166 25.51784344 -121.82421875 29.32421875 Z M-265.5859375 89.578125 C-276.83567369 101.53881106 -286.37652179 115.48698092 -294 130 C-289.5448819 131.11083077 -285.19028677 131.13463252 -280.62963867 131.11352539 C-279.79985504 131.11367142 -278.97007141 131.11381744 -278.11514282 131.1139679 C-275.38272453 131.11327333 -272.65037508 131.10550229 -269.91796875 131.09765625 C-268.0193943 131.09579045 -266.12081937 131.09436731 -264.22224426 131.09336853 C-259.23278466 131.0895561 -254.24335432 131.0797367 -249.25390625 131.06866455 C-244.15950923 131.05842303 -239.06510748 131.05386504 -233.97070312 131.04882812 C-223.98045592 131.03811328 -213.9902304 131.02105216 -204 131 C-202.35702688 127.85660894 -201.53889389 125.19870868 -200.95703125 121.6875 C-200.68294434 120.09615234 -200.68294434 120.09615234 -200.40332031 118.47265625 C-200.20834961 117.32667969 -200.01337891 116.18070312 -199.8125 115 C-194.69631256 86.41089845 -186.57748446 59.03165445 -176 32 C-207.02311719 32 -245.4369052 69.48996591 -265.5859375 89.578125 Z M-44 32 C-43.67128906 32.84175781 -43.34257812 33.68351562 -43.00390625 34.55078125 C-30.80255366 66.19625843 -23.41445047 97.64485755 -17 131 C12.7 131 42.4 131 73 131 C73 113.69855343 46.42438658 90.56598266 35 79 C17.62422187 61.79601629 -18.08103722 32 -44 32 Z M-313 176 C-313.81365988 179.77442979 -314.61666673 183.55105404 -315.41796875 187.328125 C-315.645448 188.38273926 -315.87292725 189.43735352 -316.1072998 190.52392578 C-322.96933355 223.01712287 -319.7583162 253.56008225 -313 286 C-278.68 286 -244.36 286 -209 286 C-207.53144282 283.06288564 -208.17956863 280.24939067 -208.4296875 277.05859375 C-209.33881471 263.31922727 -209.1506904 249.54093582 -209.13037109 235.77856445 C-209.1246793 231.85457871 -209.12803656 227.930661 -209.13383865 224.00667763 C-209.17019506 194.55834673 -209.17019506 194.55834673 -208.26150513 182.05738831 C-208.14175768 180.37359278 -208.06515441 178.68679036 -208 177 C-208.97130594 175.81013209 -208.97130594 175.81013209 -210.74725437 175.87695217 C-211.89626933 175.87833486 -211.89626933 175.87833486 -213.0684967 175.87974548 C-213.94494339 175.87837082 -214.82139008 175.87699615 -215.72439575 175.87557983 C-216.69327728 175.87917511 -217.66215881 175.88277039 -218.66040039 175.88647461 C-219.67491776 175.88632858 -220.68943512 175.88618256 -221.73469543 175.8860321 C-225.10570373 175.88673171 -228.47665754 175.89452632 -231.84765625 175.90234375 C-234.17793243 175.90420776 -236.508209 175.90563174 -238.83848572 175.90663147 C-244.98537265 175.91045798 -251.13223613 175.9202894 -257.27911377 175.93133545 C-263.54609866 175.94154671 -269.81308732 175.94612848 -276.08007812 175.95117188 C-288.38672908 175.96191155 -300.69336259 175.97898956 -313 176 Z M-163 177 C-163.23320909 180.10721895 -163.40501059 183.19649386 -163.53515625 186.30859375 C-163.59962196 187.74066917 -163.59962196 187.74066917 -163.66539001 189.20167542 C-163.75588834 191.23859667 -163.84399145 193.27562548 -163.92993164 195.31274414 C-164.05945482 198.36572236 -164.19802178 201.41818361 -164.33789062 204.47070312 C-165.17277313 223.22646461 -165.05974301 241.77547754 -164.20043945 260.52905273 C-164.06000251 263.61742271 -163.92913625 266.70610962 -163.79882812 269.79492188 C-163.71150208 271.76044183 -163.62363296 273.72593775 -163.53515625 275.69140625 C-163.49656998 276.61409805 -163.4579837 277.53678986 -163.41822815 278.48744202 C-163.62008714 282.57309244 -163.62008714 282.57309244 -162 286 C-160.6489268 286.09746311 -159.29281627 286.12631579 -157.93823242 286.12698364 C-157.0632309 286.12980347 -156.18822937 286.13262329 -155.28671265 286.13552856 C-154.31940216 286.13350433 -153.35209167 286.1314801 -152.35546875 286.12939453 C-150.83610214 286.13202301 -150.83610214 286.13202301 -149.28604126 286.13470459 C-145.91984369 286.13912522 -142.55369816 286.13618437 -139.1875 286.1328125 C-136.85961904 286.13348548 -134.53173814 286.13445545 -132.20385742 286.13571167 C-127.31786431 286.13718893 -122.43188944 286.13503318 -117.54589844 286.13037109 C-111.26727344 286.1246738 -104.98869118 286.12795265 -98.71006775 286.13394356 C-93.90099767 286.13754841 -89.09193781 286.13641093 -84.28286743 286.13381577 C-81.96709183 286.13314629 -79.65131531 286.13397564 -77.33554077 286.13629532 C-74.10517909 286.13882061 -70.87488767 286.13498299 -67.64453125 286.12939453 C-66.19356552 286.13243088 -66.19356552 286.13243088 -64.71328735 286.13552856 C-63.40078506 286.13129883 -63.40078506 286.13129883 -62.06176758 286.12698364 C-61.29705643 286.12660662 -60.53234528 286.12622959 -59.74446106 286.12584114 C-57.97102957 286.18916202 -57.97102957 286.18916202 -57 285 C-55.86765783 274.76173955 -55.79670954 264.34808018 -55.4375 254.0625 C-55.39367187 252.83829346 -55.34984375 251.61408691 -55.3046875 250.3527832 C-54.76964257 234.03714911 -55.05563086 217.84941414 -55.79956055 201.54638672 C-55.93980297 198.44913891 -56.07074601 195.35158137 -56.20117188 192.25390625 C-56.28851178 190.28382967 -56.37638161 188.3137765 -56.46484375 186.34375 C-56.50343002 185.41792114 -56.5420163 184.49209229 -56.58177185 183.53820801 C-56.37756429 179.43893203 -56.37756429 179.43893203 -58 176 C-59.3510732 175.90253689 -60.70718373 175.87368421 -62.06176758 175.87301636 C-62.9367691 175.87019653 -63.81177063 175.86737671 -64.71328735 175.86447144 C-65.68059784 175.86649567 -66.64790833 175.8685199 -67.64453125 175.87060547 C-68.65744232 175.86885315 -69.67035339 175.86710083 -70.71395874 175.86529541 C-74.08015631 175.86087478 -77.44630184 175.86381563 -80.8125 175.8671875 C-83.14038096 175.86651452 -85.46826186 175.86554455 -87.79614258 175.86428833 C-92.68213569 175.86281107 -97.56811056 175.86496682 -102.45410156 175.86962891 C-108.73272656 175.8753262 -115.01130882 175.87204735 -121.28993225 175.86605644 C-126.09900233 175.86245159 -130.90806219 175.86358907 -135.71713257 175.86618423 C-138.03290817 175.86685371 -140.34868469 175.86602436 -142.66445923 175.86370468 C-145.89482091 175.86117939 -149.12511233 175.86501701 -152.35546875 175.87060547 C-153.80643448 175.86756912 -153.80643448 175.86756912 -155.28671265 175.86447144 C-156.16171417 175.86729126 -157.0367157 175.87011108 -157.93823242 175.87301636 C-158.70294357 175.87339338 -159.46765472 175.87377041 -160.25553894 175.87415886 C-162.02897043 175.81083798 -162.02897043 175.81083798 -163 177 Z M-11 176 C-12.46855718 178.93711436 -11.82043137 181.75060933 -11.5703125 184.94140625 C-10.66118529 198.68077273 -10.8493096 212.45906418 -10.86962891 226.22143555 C-10.8753207 230.14542129 -10.87196344 234.069339 -10.86616135 237.99332237 C-10.82980494 267.44165327 -10.82980494 267.44165327 -11.73849487 279.94261169 C-11.85824232 281.62640722 -11.93484559 283.31320964 -12 285 C-11.03051948 286.18788339 -11.03051948 286.18788339 -9.268363 286.12304783 C-8.50972737 286.12212604 -7.75109175 286.12120424 -6.96946716 286.12025452 C-6.10143463 286.12162918 -5.2334021 286.12300385 -4.33906555 286.12442017 C-2.89976936 286.11902725 -2.89976936 286.11902725 -1.43139648 286.11352539 C-0.42663269 286.11367142 0.5781311 286.11381744 1.61334229 286.1139679 C4.95188517 286.1132683 8.29037305 286.10547374 11.62890625 286.09765625 C13.93676218 286.09579224 16.24461851 286.09436826 18.55247498 286.09336853 C24.64017826 286.08954204 30.72785786 286.07971065 36.81555176 286.06866455 C43.02221354 286.05845323 49.22887913 286.05387151 55.43554688 286.04882812 C67.62370835 286.0380885 79.81185221 286.02101052 92 286 C92.48777678 284.72802625 92.97283752 283.45501074 93.45675659 282.18156433 C93.72716703 281.47276721 93.99757748 280.76397009 94.27618217 280.03369427 C95.17001252 277.52231975 95.69863494 275.05416625 96.1328125 272.42578125 C96.2987793 271.43545898 96.46474609 270.44513672 96.63574219 269.42480469 C96.8779248 267.88421387 96.8779248 267.88421387 97.125 266.3125 C97.29676758 265.24032227 97.46853516 264.16814453 97.64550781 263.06347656 C98.79495297 255.71372332 99.79712479 248.44463811 100 241 C100.0306958 239.94329102 100.0306958 239.94329102 100.06201172 238.86523438 C100.58759496 217.9635272 98.76815231 197.17681448 93 177 C92.03051948 175.81211661 92.03051948 175.81211661 90.268363 175.87695217 C89.13040956 175.87833486 89.13040956 175.87833486 87.96946716 175.87974548 C87.10143463 175.87837082 86.2334021 175.87699615 85.33906555 175.87557983 C83.89976936 175.88097275 83.89976936 175.88097275 82.43139648 175.88647461 C81.42663269 175.88632858 80.4218689 175.88618256 79.38665771 175.8860321 C76.04811483 175.8867317 72.70962695 175.89452626 69.37109375 175.90234375 C67.06323782 175.90420776 64.75538149 175.90563174 62.44752502 175.90663147 C56.35982174 175.91045796 50.27214214 175.92028935 44.18444824 175.93133545 C37.97778646 175.94154677 31.77112087 175.94612849 25.56445312 175.95117188 C13.37629165 175.9619115 1.18814779 175.97898948 -11 176 Z M-293 331 C-293 335.16519959 -290.92169178 337.78058241 -288.75 341.1875 C-288.29963379 341.89656494 -287.84926758 342.60562988 -287.38525391 343.33618164 C-262.327801 382.22806303 -223.17491436 416.77278507 -178 430 C-177.34 429.67 -176.68 429.34 -176 429 C-176.26627197 428.33806641 -176.53254395 427.67613281 -176.80688477 426.99414062 C-189.15204723 396.11396665 -197.10023892 364.69161728 -203 332 C-207.4551181 330.88916923 -211.80971323 330.86536748 -216.37036133 330.88647461 C-217.20014496 330.88632858 -218.02992859 330.88618256 -218.88485718 330.8860321 C-221.61727547 330.88672667 -224.34962492 330.89449771 -227.08203125 330.90234375 C-228.9806057 330.90420955 -230.87918063 330.90563269 -232.77775574 330.90663147 C-237.76721534 330.9104439 -242.75664568 330.9202633 -247.74609375 330.93133545 C-252.84049077 330.94157697 -257.93489252 330.94613496 -263.02929688 330.95117188 C-273.01954408 330.96188672 -283.0097696 330.97894784 -293 331 Z M-156 331 C-157.42294762 333.84589523 -156.66092664 335.55603225 -156.03125 338.66015625 C-155.7935791 339.83384766 -155.5559082 341.00753906 -155.31103516 342.21679688 C-155.04339355 343.48587891 -154.77575195 344.75496094 -154.5 346.0625 C-154.2960965 347.03497681 -154.2960965 347.03497681 -154.08807373 348.02709961 C-148.11400615 376.37583145 -140.87883872 410.6826904 -121 433 C-120.42378906 433.65613281 -119.84757812 434.31226563 -119.25390625 434.98828125 C-116.75866348 437.66597188 -114.76024394 439.67418117 -111.375 441.125 C-106.06927163 440.84575114 -102.40169745 436.90598436 -98.8828125 433.25 C-77.6878412 407.92156957 -69.81411231 370.56935727 -64.0625 339 C-63.93375488 338.29343262 -63.80500977 337.58686523 -63.67236328 336.85888672 C-63.39990726 335.24668457 -63.19217016 333.62372987 -63 332 C-64.85581966 330.14418034 -67.49398306 330.87995634 -69.96286011 330.87557983 C-70.81953278 330.87917511 -71.67620544 330.88277039 -72.55883789 330.88647461 C-73.45631241 330.88632858 -74.35378693 330.88618256 -75.27845764 330.8860321 C-78.25988134 330.88673158 -81.2412434 330.89452559 -84.22265625 330.90234375 C-86.28388942 330.90420781 -88.34512304 330.90563177 -90.40635681 330.90663147 C-95.8430401 330.91045763 -101.27969686 330.92028874 -106.71636963 330.93133545 C-112.25947714 330.94154747 -117.80258892 330.94612864 -123.34570312 330.95117188 C-134.23048043 330.96191092 -145.11523802 330.97898851 -156 331 Z M-17 331 C-17.22434219 332.13873062 -17.44868439 333.27746124 -17.67982483 334.45069885 C-18.52627966 338.74253735 -19.37710451 343.03350049 -20.22914124 347.32423401 C-20.59482545 349.16883233 -20.95938006 351.01365502 -21.32270813 352.85871887 C-26.00987947 376.65149343 -32.40656286 399.29857474 -41 422 C-41.58903005 423.57012937 -42.17762802 425.14042096 -42.765625 426.7109375 C-43.17296875 427.79632813 -43.5803125 428.88171875 -44 430 C1.58694346 418.43297533 44.85647603 381.5013611 68.6015625 341.734375 C70.46488832 338.5237091 72.25601535 335.27721587 74 332 C72.16642556 330.16642556 69.60364305 330.88000033 67.1640625 330.87557983 C66.32609131 330.87917511 65.48812012 330.88277039 64.62475586 330.88647461 C63.74678848 330.88632858 62.86882111 330.88618256 61.96424866 330.8860321 C59.04775565 330.88673156 56.13132567 330.89452545 53.21484375 330.90234375 C51.19845108 330.90420782 49.18205796 330.90563177 47.16566467 330.90663147 C41.84734862 330.91045756 36.5290597 330.92028861 31.21075439 330.93133545 C25.78829312 330.94154762 20.36582748 330.94612867 14.94335938 330.95117188 C4.29556097 330.9619108 -6.35221726 330.97898831 -17 331 Z " fill="#FEFEFE" transform="translate(403,47)"/>
</svg>
